<svg width="24" height="24" viewBox="0 0 24 24" fill="none" xmlns="http://www.w3.org/2000/svg">
<g id="Iconly/Curved/Activity">
<g id="Activity">
<path id="Stroke 4" fill-rule="evenodd" clip-rule="evenodd" d="M20.5001 6.00037C20.6331 6.89537 20.9495 11.1721 20.9495 12.3031C20.9495 19.2411 18.6375 21.5531 11.6995 21.5531C4.76252 21.5531 2.44952 19.2411 2.44952 12.3031C2.44952 5.3661 4.76252 3.0531 11.6995 3.0531C12.8095 3.0531 17.6181 3.37237 18.5001 3.50037" fill="#5B67CA"/>
<path id="Stroke 1" d="M6.91711 14.8539L9.91011 10.9649L13.3241 13.6449L16.2531 9.86487" stroke="white" stroke-width="1.5" stroke-linecap="round" stroke-linejoin="round"/>
<path id="Stroke 2" fill-rule="evenodd" clip-rule="evenodd" d="M19.6671 2.34998C20.7291 2.34998 21.5891 3.20998 21.5891 4.27198C21.5891 5.33298 20.7291 6.19398 19.6671 6.19398C18.6051 6.19398 17.7451 5.33298 17.7451 4.27198C17.7451 3.20998 18.6051 2.34998 19.6671 2.34998Z" fill="#E88B8C" stroke="#E88B8C" stroke-width="1.5" stroke-linecap="round" stroke-linejoin="round"/>
</g>
</g>
</svg>
