<svg width="16" height="16" viewBox="0 0 16 16" fill="none" xmlns="http://www.w3.org/2000/svg">
<path fill-rule="evenodd" clip-rule="evenodd" d="M5.11313 1.33276H10.8931C13.1531 1.33276 14.6665 2.91943 14.6665 5.27943V10.7268C14.6665 13.0801 13.1531 14.6661 10.8931 14.6661H5.11313C2.85313 14.6661 1.33313 13.0801 1.33313 10.7268V5.27943C1.33313 2.91943 2.85313 1.33276 5.11313 1.33276ZM10.0065 9.99942C10.2331 9.77342 10.2331 9.40676 10.0065 9.18009L8.81979 7.99342L10.0065 6.80609C10.2331 6.58009 10.2331 6.20676 10.0065 5.98009C9.77979 5.75276 9.41313 5.75276 9.17979 5.98009L7.99979 7.16609L6.81313 5.98009C6.57979 5.75276 6.21313 5.75276 5.98646 5.98009C5.75979 6.20676 5.75979 6.58009 5.98646 6.80609L7.17313 7.99342L5.98646 9.17342C5.75979 9.40676 5.75979 9.77342 5.98646 9.99942C6.09979 10.1128 6.25313 10.1734 6.39979 10.1734C6.55313 10.1734 6.69979 10.1128 6.81313 9.99942L7.99979 8.82009L9.18646 9.99942C9.29979 10.1201 9.44646 10.1734 9.59313 10.1734C9.74646 10.1734 9.89313 10.1128 10.0065 9.99942Z" fill="#B0B5DD"/>
</svg>
