<svg width="24" height="24" viewBox="0 0 24 24" fill="none" xmlns="http://www.w3.org/2000/svg">
<rect width="24" height="24" fill="#E5E5E5"/>
<g id="Home" clip-path="url(#clip0_0_1)">
<rect width="375" height="812" transform="translate(-49 -733)" fill="white"/>
<g id="Group 683">
<rect id="Rectangle 15" x="-20" y="-64" width="322" height="114" rx="15" fill="#F9FAFD"/>
<g id="Group 635">
<rect id="Rectangle 31" x="5" y="15" width="44" height="20" rx="3" fill="#E88B8C" fill-opacity="0.2"/>
<path id="Urgent" d="M17.81 25.42C17.81 26.2933 17.5833 26.9567 17.13 27.41C16.6767 27.8633 16.05 28.09 15.25 28.09C14.4633 28.09 13.8433 27.87 13.39 27.43C12.9367 26.9833 12.71 26.34 12.71 25.5V21.26H13.74V25.49C13.74 26.0633 13.8767 26.4833 14.15 26.75C14.43 27.01 14.7967 27.14 15.25 27.14C16.27 27.14 16.78 26.5733 16.78 25.44V21.26H17.81V25.42ZM20.1934 28H19.2134V22.93H20.1934V23.82C20.4401 23.1933 20.8834 22.88 21.5234 22.88C21.6168 22.88 21.7201 22.89 21.8334 22.91V23.87C21.6934 23.81 21.5368 23.78 21.3634 23.78C21.0234 23.78 20.7434 23.93 20.5234 24.23C20.3034 24.53 20.1934 24.8867 20.1934 25.3V28ZM26.8721 27.57C26.8721 28.35 26.6488 28.9367 26.2021 29.33C25.7621 29.73 25.1954 29.93 24.5021 29.93C23.8488 29.93 23.2988 29.82 22.8521 29.6V28.61C23.2788 28.89 23.7954 29.03 24.4021 29.03C25.3954 29.03 25.8921 28.54 25.8921 27.56V27.04C25.5654 27.5867 25.0754 27.86 24.4221 27.86C23.8488 27.86 23.3588 27.65 22.9521 27.23C22.5454 26.8033 22.3421 26.2033 22.3421 25.43C22.3421 24.6833 22.5321 24.07 22.9121 23.59C23.2921 23.1033 23.7954 22.86 24.4221 22.86C25.0954 22.86 25.5854 23.1467 25.8921 23.72V22.93H26.8721V27.57ZM23.3721 25.41C23.3721 25.9367 23.4921 26.3367 23.7321 26.61C23.9788 26.8833 24.2688 27.02 24.6021 27.02C24.9488 27.02 25.2488 26.8867 25.5021 26.62C25.7621 26.3467 25.8921 25.9667 25.8921 25.48C25.8921 24.88 25.7688 24.4367 25.5221 24.15C25.2821 23.8633 24.9888 23.72 24.6421 23.72C24.2488 23.72 23.9388 23.8767 23.7121 24.19C23.4854 24.4967 23.3721 24.9033 23.3721 25.41ZM31.968 27.73C31.5947 27.9433 31.1014 28.05 30.488 28.05C29.7014 28.05 29.0747 27.8133 28.608 27.34C28.1414 26.8667 27.908 26.2467 27.908 25.48C27.908 24.6667 28.1214 24.03 28.548 23.57C28.9747 23.1033 29.518 22.87 30.178 22.87C30.8247 22.87 31.338 23.0733 31.718 23.48C32.098 23.88 32.288 24.46 32.288 25.22C32.288 25.4267 32.268 25.6433 32.228 25.87H28.898C28.9647 26.31 29.1514 26.6467 29.458 26.88C29.7647 27.1133 30.1514 27.23 30.618 27.23C31.158 27.23 31.608 27.1033 31.968 26.85V27.73ZM30.198 23.68C29.8647 23.68 29.578 23.8033 29.338 24.05C29.098 24.29 28.948 24.64 28.888 25.1H31.338V24.92C31.3247 24.54 31.2214 24.24 31.028 24.02C30.8347 23.7933 30.558 23.68 30.198 23.68ZM37.632 28H36.652V24.8C36.652 24.4467 36.562 24.1767 36.382 23.99C36.2086 23.8033 35.9753 23.71 35.682 23.71C35.3353 23.71 35.0386 23.8467 34.792 24.12C34.5453 24.3867 34.422 24.7633 34.422 25.25V28H33.442V22.93H34.422V23.8C34.722 23.1733 35.2486 22.86 36.002 22.86C36.502 22.86 36.8986 23.0133 37.192 23.32C37.4853 23.6267 37.632 24.0433 37.632 24.57V28ZM41.6098 27.87C41.3898 27.99 41.1198 28.05 40.7998 28.05C39.7531 28.05 39.2298 27.52 39.2298 26.46V23.69H38.4398V22.93H39.2298V21.69H40.2198V22.93H41.5498V23.69H40.2198V26.48C40.2198 26.9667 40.4531 27.21 40.9198 27.21C41.1931 27.21 41.4231 27.1367 41.6098 26.99V27.87Z" fill="#E88B8C"/>
</g>
</g>
<g id="Group 682">
<g id="Rectangle 637" filter="url(#filter0_d_0_1)">
<rect x="-20" y="-25" width="316" height="74" rx="14" fill="white"/>
</g>
<g id="Group 681">
<g id="Iconly/Curved/Home">
<g id="Home_2">
<path id="Stroke 2" fill-rule="evenodd" clip-rule="evenodd" d="M2.40002 13.713C2.40002 8.082 3.01402 8.475 6.31902 5.41C7.76502 4.246 10.015 2 11.958 2C13.9 2 16.195 4.235 17.654 5.41C20.959 8.475 21.572 8.082 21.572 13.713C21.572 22 19.613 22 11.986 22C4.35903 22 2.40002 22 2.40002 13.713Z" fill="#5B67CA"/>
<path id="Stroke 1" d="M9.07874 16.1357H14.8937" stroke="white" stroke-width="1.5" stroke-linecap="round" stroke-linejoin="round"/>
</g>
</g>
</g>
</g>
</g>
<defs>
<filter id="filter0_d_0_1" x="-36" y="-31" width="342" height="100" filterUnits="userSpaceOnUse" color-interpolation-filters="sRGB">
<feFlood flood-opacity="0" result="BackgroundImageFix"/>
<feColorMatrix in="SourceAlpha" type="matrix" values="0 0 0 0 0 0 0 0 0 0 0 0 0 0 0 0 0 0 127 0" result="hardAlpha"/>
<feOffset dx="-3" dy="7"/>
<feGaussianBlur stdDeviation="6.5"/>
<feColorMatrix type="matrix" values="0 0 0 0 0.945833 0 0 0 0 0.9675 0 0 0 0 1 0 0 0 1 0"/>
<feBlend mode="normal" in2="BackgroundImageFix" result="effect1_dropShadow_0_1"/>
<feBlend mode="normal" in="SourceGraphic" in2="effect1_dropShadow_0_1" result="shape"/>
</filter>
<clipPath id="clip0_0_1">
<rect width="375" height="812" fill="white" transform="translate(-49 -733)"/>
</clipPath>
</defs>
</svg>
